<?xml version="1.0" encoding="iso-8859-1"?>
<!-- Generator: Adobe Illustrator 19.0.0, SVG Export Plug-In . SVG Version: 6.00 Build 0)  -->
<svg version="1.1" id="Capa_1" xmlns="http://www.w3.org/2000/svg" xmlns:xlink="http://www.w3.org/1999/xlink" x="0px" y="0px"
	 viewBox="0 0 512 512" style="enable-background:new 0 0 512 512;" xml:space="preserve">
<path style="fill:#FD3C65;" d="M391,26.1V135l-30,15H30L0,120V45C0,20.099,20.099,0,45,0h316L391,26.1z"/>
<polygon style="fill:#FD003A;" points="391,26.1 391,135 361,150 256,150 256,0 361,0 "/>
<path style="fill:#004A7B;" d="M467,0H361v150h121l30-30V45C512,20.186,491.814,0,467,0z"/>
<path style="fill:#E1E4FB;" d="M512,120v345c0,24.901-20.099,47-45,47H45c-24.901,0-45-22.099-45-47V120H512z"/>
<path style="fill:#C5C9F7;" d="M512,120v345c0,24.901-20.099,47-45,47H256V120H512z"/>
<g>
	<path style="fill:#004A7B;" d="M106,90H75c-8.291,0-15-6.709-15-15s6.709-15,15-15h31c8.291,0,15,6.709,15,15S114.291,90,106,90z"
		/>
	<path style="fill:#004A7B;" d="M196,90h-30c-8.291,0-15-6.709-15-15s6.709-15,15-15h30c8.291,0,15,6.709,15,15S204.291,90,196,90z"
		/>
	<path style="fill:#004A7B;" d="M301,75c0,8.401-6.599,15-15,15h-30c-8.401,0-15-6.599-15-15s6.599-15,15-15h30
		C294.401,60,301,66.599,301,75z"/>
</g>
<path style="fill:#00345B;" d="M301,75c0,8.401-6.599,15-15,15h-30V60h30C294.401,60,301,66.599,301,75z"/>
<path style="fill:#FCBF29;" d="M271,361c0,8.399-6.599,15-15,15s-15-6.601-15-15c0-8.401,6.599-15,15-15S271,352.599,271,361z"/>
<circle style="fill:#FE9923;" cx="286" cy="391" r="15"/>
<g>
	<circle style="fill:#FCBF29;" cx="226" cy="391" r="15"/>
	<path style="fill:#FCBF29;" d="M271,421c0,8.399-6.599,15-15,15s-15-6.601-15-15c0-8.401,6.599-15,15-15S271,412.599,271,421z"/>
</g>
<circle style="fill:#FE9923;" cx="316" cy="421" r="15"/>
<circle style="fill:#FCBF29;" cx="196" cy="421" r="15"/>
<path style="fill:#FD3C65;" d="M383.2,213.699c-23.399-23.399-61.5-23.399-84.901,0L256,256l-42.299-42.301
	c-23.401-23.399-61.501-23.399-84.901,0c-11.4,11.1-17.701,26.4-17.701,42.301c0,15.899,6.301,31.199,17.701,42.299l53.101,53.101
	c2.699,2.999,6.599,4.499,10.499,4.499s7.8-1.5,10.499-4.499L256,298.299l53.101,53.101c2.699,2.999,6.599,4.499,10.499,4.499
	s7.8-1.5,10.499-4.499l53.101-53.101c11.4-11.1,17.701-26.4,17.701-42.299C400.901,240.099,394.6,224.799,383.2,213.699z"/>
<g>
	<path style="fill:#FE9923;" d="M271,421c0,8.399-6.599,15-15,15v-30C264.401,406,271,412.599,271,421z"/>
	<path style="fill:#FE9923;" d="M271,361c0,8.399-6.599,15-15,15v-30C264.401,346,271,352.599,271,361z"/>
</g>
<path style="fill:#1689FC;" d="M400.901,256c0,15.899-6.301,31.199-17.701,42.299L330.099,351.4
	c-2.699,2.999-6.599,4.499-10.499,4.499s-7.8-1.5-10.499-4.499L256,298.299V256l42.299-42.301c23.401-23.399,61.501-23.399,84.901,0
	C394.6,224.799,400.901,240.099,400.901,256z"/>
<g>
</g>
<g>
</g>
<g>
</g>
<g>
</g>
<g>
</g>
<g>
</g>
<g>
</g>
<g>
</g>
<g>
</g>
<g>
</g>
<g>
</g>
<g>
</g>
<g>
</g>
<g>
</g>
<g>
</g>
</svg>
